<svg xmlns="http://www.w3.org/2000/svg" xmlns:xlink="http://www.w3.org/1999/xlink" width="1280" height="720" viewBox="0 0 1280 720">
  <defs>
    <clipPath id="clip-Cliente-Netflix">
      <rect width="1280" height="720"/>
    </clipPath>
  </defs>
  <g id="Cliente-Netflix" clip-path="url(#clip-Cliente-Netflix)">
    <rect width="1280" height="720"/>
    <path id="Netflix_Logo_RGB" d="M187,185.821h32.777l44.918,124.145V185.821h34.489V391.494q-18.914,1.941-37.756,4.122l-39.941-114.4v119.3Q204.207,402.758,187,405.2ZM966.636,399.893l-25.213-64.842-25.458,58.821q-18.093-1.992-36.251-3.762l43.775-101.167-40.1-103.122H920.7l22.437,57.711,24.974-57.711H1006L961.069,289.64,1006,405.172l-.053.022Q986.333,402.4,966.636,399.893ZM332.345,185.823h95.8V220.01H366.834v46.308c14.086-.18,34.114-.383,46.575-.353V299.85c-15.6-.193-33.2.213-46.575.347v51.3q30.567-2.4,61.312-4.177V381.2q-48.118,2.764-95.8,7.1ZM819.5,384.874V185.821h34.489V387.714Q836.769,386.186,819.5,384.874Zm-122.073-6.758V185.8h34.487V345.618q29.658,1.376,59.152,3.334v33.882Q744.442,379.735,697.429,378.116ZM486.35,220.008h-36.1V185.821H556.933v34.186H520.838V377.361q-17.268.451-34.489,1.089Zm92.694-34.184h96.279V220.01H613.533v44.308h46.751V298.2H613.533v78.228l-34.489.007Z" transform="translate(43.003 64.198)" fill="#e50914"/>
  </g>
</svg>
